<svg xmlns="http://www.w3.org/2000/svg" viewBox="0 0 50 50">
  <g fill="none" fill-rule="evenodd" transform="translate(3 3)">
    <ellipse cx="22" cy="22" stroke="#FFF" stroke-width="6" rx="22" ry="22"/>
    <path fill="#FFF" d="M24.176087 22.80557c-.524592 1.49307-1.170245 2.300137-2.421196 2.300137-1.089532 0-1.73519-.645653-1.73519-1.654484 0-.968478.56495-1.73519 1.69484-2.259783l4.55992-2.21943c1.896605-.928124 2.86508-2.5019 2.86508-4.680977 0-3.873913-3.026493-6.214403-7.223232-6.214403-4.07568 0-6.900407 2.501903-7.54606 6.093343l3.83356.645652c.6053-2.21943 1.936957-3.308967 3.95462-3.308967 1.654484 0 2.945788 1.00883 2.945788 2.46155 0 1.412363-.524592 2.13872-1.97731 2.824727l-3.34932 1.533424c-2.300136 1.04918-3.430028 2.703662-3.430028 4.96345 0 3.066843 2.21943 5.0038 5.488044 5.0038 2.86508 0 4.761684-1.412365 5.6091-4.23709l-3.26861-1.25095zM19.61617 35.960735c1.170243 1.12989 3.268613 1.12989 4.398504 0 1.170244-1.170245 1.170244-3.187908 0-4.3178-1.12989-1.170244-3.22826-1.170244-4.398505 0-1.129898 1.129892-1.129898 3.147555 0 4.3178z"/>
  </g>
</svg>
