<?xml version="1.0" encoding="utf-8"?><svg xmlns="http://www.w3.org/2000/svg" xmlns:xlink="http://www.w3.org/1999/xlink"><symbol viewBox="0 0 53 26" id="arr"><path d="M24.752 25L1.264 6.497C.107 5.584-.213 3.723.55 2.34 1.313.957 2.87.575 4.027 1.486l23.488 18.506-2.767.003L48.225 1.423c1.156-.915 2.713-.536 3.478.846.765 1.38.448 3.242-.708 4.156L27.52 24.998c-.84.663-1.93.665-2.768.003z"/></symbol><symbol viewBox="0 0 50 50" id="facebook"><path d="M47.24 0H2.76A2.76 2.76 0 0 0 0 2.76v44.48A2.76 2.76 0 0 0 2.76 50h23.946V30.637H20.19V23.09h6.516v-5.564c0-6.458 3.945-9.974 9.706-9.974 2.76 0 5.13.205 5.823.297v6.748l-3.996.002c-3.134 0-3.74 1.49-3.74 3.674v4.817h7.472l-.974 7.547h-6.5V50H47.24A2.76 2.76 0 0 0 50 47.24V2.76A2.76 2.76 0 0 0 47.24 0" fill-rule="evenodd"/></symbol><symbol viewBox="0 0 50 50" id="instagram"><path d="M25.188 0c-6.978 0-7.83.03-10.526 0-2.63.272-4.448.694-6.015 1.128-1.667.823-3.06 1.678-4.512 3.007-1.33 1.45-2.184 2.845-3.007 4.512C.694 10.214.272 12.032 0 14.662c.03 2.697 0 3.548 0 10.526 0 6.602.03 7.453 0 10.15.272 2.63.694 4.448 1.128 6.015.823 1.667 1.678 3.06 3.007 4.512 1.45 1.33 2.845 2.184 4.512 3.007 1.567.434 3.385.856 6.015 1.128 2.697-.03 3.548 0 10.526 0 6.602 0 7.453-.03 10.15 0 2.63-.272 4.448-.694 6.015-1.128 1.667-.823 3.06-1.678 4.512-3.007 1.33-1.45 2.184-2.845 3.007-4.512.434-1.567.856-3.385 1.128-6.015-.03-2.697 0-3.548 0-10.15 0-6.978-.03-7.83 0-10.526-.272-2.63-.694-4.448-1.128-6.015-.823-1.667-1.678-3.06-3.007-4.512-1.45-1.33-2.845-2.184-4.512-3.007C39.786.694 37.968.272 35.338 0c-2.697.03-3.548 0-10.15 0zm0 4.51c6.485 0 7.276.027 9.774 0 2.573.258 3.897.665 4.888 1.13 1.056.33 1.888.872 2.63 1.88 1.008.742 1.55 1.574 1.88 2.63.465.99.872 2.315 1.13 4.888-.027 2.498 0 3.29 0 10.15 0 6.485-.027 7.276 0 9.774-.258 2.573-.665 3.897-1.13 4.888-.33 1.056-.872 1.888-1.88 2.63-.742 1.008-1.574 1.55-2.63 1.88-.99.465-2.315.872-4.888 1.13-2.498-.027-3.288 0-9.774 0-6.862 0-7.652-.027-10.15 0-2.573-.258-3.897-.665-4.888-1.13-1.056-.33-1.888-.872-2.63-1.88-1.007-.742-1.55-1.574-1.88-2.63-.465-.99-.872-2.315-1.13-4.888.027-2.498 0-3.29 0-9.774 0-6.86.027-7.652 0-10.15.258-2.573.665-3.897 1.13-4.888.33-1.056.872-1.888 1.88-2.63.742-1.008 1.574-1.55 2.63-1.88.99-.465 2.315-.872 4.888-1.13 2.498.027 3.29 0 10.15 0zm16.165 7.144a3.008 3.008 0 1 1-6.016 0 3.008 3.008 0 0 1 6.016 0zm-16.54.752c-7.06 0-12.783 5.723-12.783 12.782 0 7.06 5.723 12.782 12.782 12.782 7.06 0 12.782-5.723 12.782-12.782 0-7.06-5.723-12.782-12.782-12.782zm0 21.053a8.271 8.271 0 1 1-.001-16.539 8.271 8.271 0 0 1 .001 16.537z" fill-rule="evenodd"/></symbol><symbol viewBox="0 0 30 30" id="search"><g fill-rule="evenodd"><path d="M12 24c6.627 0 12-5.373 12-12S18.627 0 12 0 0 5.373 0 12s5.373 12 12 12zm0-4a8 8 0 1 0 0-16 8 8 0 0 0 0 16z"/><path d="M20.828 18l9.193 9.192-2.827 2.828L18 20.828z"/></g></symbol><symbol viewBox="0 0 128 128" id="triangle"><title>Combined Shape</title><path d="M0 0l128 128H0V0zm18.596 124.153a3.206 3.206 0 1 0 0-6.413 3.206 3.206 0 0 0 0 6.413zm12.825 0a3.206 3.206 0 1 0 0-6.413 3.206 3.206 0 0 0 0 6.413zm12.825-12.825a3.206 3.206 0 1 0 0-6.413 3.206 3.206 0 0 0 0 6.413zm-12.825 0a3.206 3.206 0 1 0 0-6.413 3.206 3.206 0 0 0 0 6.413zM18.596 98.503a3.206 3.206 0 1 0 0-6.412 3.206 3.206 0 0 0 0 6.412zm-12.825 0a3.206 3.206 0 1 0 0-6.412 3.206 3.206 0 0 0 0 6.412zm0-12.825a3.206 3.206 0 1 0 0-6.412 3.206 3.206 0 0 0 0 6.412zm12.825-12.825a3.206 3.206 0 1 0 0-6.412 3.206 3.206 0 0 0 0 6.412zm12.825 0a3.206 3.206 0 1 0 0-6.412 3.206 3.206 0 0 0 0 6.412zM44.246 60.03a3.206 3.206 0 1 0 0-6.413 3.206 3.206 0 0 0 0 6.413zm-12.825 0a3.206 3.206 0 1 0 0-6.413 3.206 3.206 0 0 0 0 6.413zM18.596 47.204a3.206 3.206 0 1 0 0-6.413 3.206 3.206 0 0 0 0 6.413zm-12.825 0a3.206 3.206 0 1 0 0-6.413 3.206 3.206 0 0 0 0 6.413zm0-12.825a3.206 3.206 0 1 0 0-6.412 3.206 3.206 0 0 0 0 6.412zm64.124 89.774a3.206 3.206 0 1 0 0-6.413 3.206 3.206 0 0 0 0 6.413zm12.825 0a3.206 3.206 0 1 0 0-6.413 3.206 3.206 0 0 0 0 6.413zm12.825-12.825a3.206 3.206 0 1 0 0-6.413 3.206 3.206 0 0 0 0 6.413zm-12.825 0a3.206 3.206 0 1 0 0-6.413 3.206 3.206 0 0 0 0 6.413zM69.895 98.503a3.206 3.206 0 1 0 0-6.412 3.206 3.206 0 0 0 0 6.412zm-25.65-12.825a3.206 3.206 0 1 0 0-6.412 3.206 3.206 0 0 0 0 6.412zm12.825 0a3.206 3.206 0 1 0 0-6.412 3.206 3.206 0 0 0 0 6.412zm0 12.825a3.206 3.206 0 1 0 0-6.412 3.206 3.206 0 0 0 0 6.412z" fill="#167EDA" fill-rule="evenodd"/></symbol><symbol viewBox="0 0 55 50" id="twitter"><path d="M17.296 48c20.755 0 32.107-17.314 32.107-32.33 0-.49 0-.98-.033-1.468A23.032 23.032 0 0 0 55 8.322a22.46 22.46 0 0 1-6.48 1.787 11.4 11.4 0 0 0 4.96-6.286 22.55 22.55 0 0 1-7.166 2.758 11.238 11.238 0 0 0-13.557-2.236c-4.502 2.426-6.827 7.59-5.673 12.6A31.97 31.97 0 0 1 3.828 5.072C.833 10.265 2.363 16.907 7.322 20.24A11.142 11.142 0 0 1 2.2 18.82v.143c0 5.41 3.788 10.067 9.053 11.138-1.66.457-3.404.524-5.095.196 1.478 4.628 5.714 7.8 10.542 7.89A22.534 22.534 0 0 1 0 42.897a31.781 31.781 0 0 0 17.296 5.093" fill-rule="evenodd"/></symbol></svg>