<?xml version="1.0" encoding="UTF-8"?>
<svg width="128px" height="128px" viewBox="0 0 128 128" version="1.1" xmlns="http://www.w3.org/2000/svg" xmlns:xlink="http://www.w3.org/1999/xlink">
    <!-- Generator: Sketch 41.1 (35376) - http://www.bohemiancoding.com/sketch -->
    <title>Combined Shape</title>
    <desc>Created with Sketch.</desc>
    <defs></defs>
    <g id="Page-1" stroke="none" stroke-width="1" fill="none" fill-rule="evenodd">
        <g id="Artboard" transform="translate(0.000000, -84.000000)" fill="#EDEDED">
            <g id="Group" transform="translate(0.000000, 84.000000)">
                <path d="M0,0 L128,128 L0,128 L0,0 Z M18.5959457,124.152563 C20.3666797,124.152563 21.8021432,122.717099 21.8021432,120.946365 C21.8021432,119.175631 20.3666797,117.740168 18.5959457,117.740168 C16.8252117,117.740168 15.3897481,119.175631 15.3897481,120.946365 C15.3897481,122.717099 16.8252117,124.152563 18.5959457,124.152563 Z M31.4207358,124.152563 C33.1914698,124.152563 34.6269333,122.717099 34.6269333,120.946365 C34.6269333,119.175631 33.1914698,117.740168 31.4207358,117.740168 C29.6500018,117.740168 28.2145382,119.175631 28.2145382,120.946365 C28.2145382,122.717099 29.6500018,124.152563 31.4207358,124.152563 Z M44.2455259,111.327773 C46.0162599,111.327773 47.4517234,109.892309 47.4517234,108.121575 C47.4517234,106.350841 46.0162599,104.915378 44.2455259,104.915378 C42.4747919,104.915378 41.0393283,106.350841 41.0393283,108.121575 C41.0393283,109.892309 42.4747919,111.327773 44.2455259,111.327773 Z M31.4207358,111.327773 C33.1914698,111.327773 34.6269333,109.892309 34.6269333,108.121575 C34.6269333,106.350841 33.1914698,104.915378 31.4207358,104.915378 C29.6500018,104.915378 28.2145382,106.350841 28.2145382,108.121575 C28.2145382,109.892309 29.6500018,111.327773 31.4207358,111.327773 Z M18.5959457,98.5029828 C20.3666797,98.5029828 21.8021432,97.0675192 21.8021432,95.2967852 C21.8021432,93.5260512 20.3666797,92.0905877 18.5959457,92.0905877 C16.8252117,92.0905877 15.3897481,93.5260512 15.3897481,95.2967852 C15.3897481,97.0675192 16.8252117,98.5029828 18.5959457,98.5029828 Z M5.77115555,98.5029828 C7.54188955,98.5029828 8.97735308,97.0675192 8.97735308,95.2967852 C8.97735308,93.5260512 7.54188955,92.0905877 5.77115555,92.0905877 C4.00042155,92.0905877 2.56495802,93.5260512 2.56495802,95.2967852 C2.56495802,97.0675192 4.00042155,98.5029828 5.77115555,98.5029828 Z M5.77115555,85.6781926 C7.54188955,85.6781926 8.97735308,84.2427291 8.97735308,82.4719951 C8.97735308,80.7012611 7.54188955,79.2657976 5.77115555,79.2657976 C4.00042155,79.2657976 2.56495802,80.7012611 2.56495802,82.4719951 C2.56495802,84.2427291 4.00042155,85.6781926 5.77115555,85.6781926 Z M18.5959457,72.8534025 C20.3666797,72.8534025 21.8021432,71.417939 21.8021432,69.647205 C21.8021432,67.876471 20.3666797,66.4410075 18.5959457,66.4410075 C16.8252117,66.4410075 15.3897481,67.876471 15.3897481,69.647205 C15.3897481,71.417939 16.8252117,72.8534025 18.5959457,72.8534025 Z M31.4207358,72.8534025 C33.1914698,72.8534025 34.6269333,71.417939 34.6269333,69.647205 C34.6269333,67.876471 33.1914698,66.4410075 31.4207358,66.4410075 C29.6500018,66.4410075 28.2145382,67.876471 28.2145382,69.647205 C28.2145382,71.417939 29.6500018,72.8534025 31.4207358,72.8534025 Z M44.2455259,60.0286124 C46.0162599,60.0286124 47.4517234,58.5931489 47.4517234,56.8224149 C47.4517234,55.0516809 46.0162599,53.6162174 44.2455259,53.6162174 C42.4747919,53.6162174 41.0393283,55.0516809 41.0393283,56.8224149 C41.0393283,58.5931489 42.4747919,60.0286124 44.2455259,60.0286124 Z M31.4207358,60.0286124 C33.1914698,60.0286124 34.6269333,58.5931489 34.6269333,56.8224149 C34.6269333,55.0516809 33.1914698,53.6162174 31.4207358,53.6162174 C29.6500018,53.6162174 28.2145382,55.0516809 28.2145382,56.8224149 C28.2145382,58.5931489 29.6500018,60.0286124 31.4207358,60.0286124 Z M18.5959457,47.2038223 C20.3666797,47.2038223 21.8021432,45.7683588 21.8021432,43.9976248 C21.8021432,42.2268908 20.3666797,40.7914273 18.5959457,40.7914273 C16.8252117,40.7914273 15.3897481,42.2268908 15.3897481,43.9976248 C15.3897481,45.7683588 16.8252117,47.2038223 18.5959457,47.2038223 Z M5.77115555,47.2038223 C7.54188955,47.2038223 8.97735308,45.7683588 8.97735308,43.9976248 C8.97735308,42.2268908 7.54188955,40.7914273 5.77115555,40.7914273 C4.00042155,40.7914273 2.56495802,42.2268908 2.56495802,43.9976248 C2.56495802,45.7683588 4.00042155,47.2038223 5.77115555,47.2038223 Z M5.77115555,34.3790322 C7.54188955,34.3790322 8.97735308,32.9435687 8.97735308,31.1728347 C8.97735308,29.4021007 7.54188955,27.9666372 5.77115555,27.9666372 C4.00042155,27.9666372 2.56495802,29.4021007 2.56495802,31.1728347 C2.56495802,32.9435687 4.00042155,34.3790322 5.77115555,34.3790322 Z M69.8951061,124.152563 C71.6658401,124.152563 73.1013036,122.717099 73.1013036,120.946365 C73.1013036,119.175631 71.6658401,117.740168 69.8951061,117.740168 C68.1243721,117.740168 66.6889086,119.175631 66.6889086,120.946365 C66.6889086,122.717099 68.1243721,124.152563 69.8951061,124.152563 Z M82.7198962,124.152563 C84.4906302,124.152563 85.9260937,122.717099 85.9260937,120.946365 C85.9260937,119.175631 84.4906302,117.740168 82.7198962,117.740168 C80.9491622,117.740168 79.5136987,119.175631 79.5136987,120.946365 C79.5136987,122.717099 80.9491622,124.152563 82.7198962,124.152563 Z M95.5446863,111.327773 C97.3154203,111.327773 98.7508838,109.892309 98.7508838,108.121575 C98.7508838,106.350841 97.3154203,104.915378 95.5446863,104.915378 C93.7739523,104.915378 92.3384888,106.350841 92.3384888,108.121575 C92.3384888,109.892309 93.7739523,111.327773 95.5446863,111.327773 Z M82.7198962,111.327773 C84.4906302,111.327773 85.9260937,109.892309 85.9260937,108.121575 C85.9260937,106.350841 84.4906302,104.915378 82.7198962,104.915378 C80.9491622,104.915378 79.5136987,106.350841 79.5136987,108.121575 C79.5136987,109.892309 80.9491622,111.327773 82.7198962,111.327773 Z M69.8951061,98.5029828 C71.6658401,98.5029828 73.1013036,97.0675192 73.1013036,95.2967852 C73.1013036,93.5260512 71.6658401,92.0905877 69.8951061,92.0905877 C68.1243721,92.0905877 66.6889086,93.5260512 66.6889086,95.2967852 C66.6889086,97.0675192 68.1243721,98.5029828 69.8951061,98.5029828 Z M44.2455259,85.6781926 C46.0162599,85.6781926 47.4517234,84.2427291 47.4517234,82.4719951 C47.4517234,80.7012611 46.0162599,79.2657976 44.2455259,79.2657976 C42.4747919,79.2657976 41.0393283,80.7012611 41.0393283,82.4719951 C41.0393283,84.2427291 42.4747919,85.6781926 44.2455259,85.6781926 Z M57.070316,85.6781926 C58.84105,85.6781926 60.2765135,84.2427291 60.2765135,82.4719951 C60.2765135,80.7012611 58.84105,79.2657976 57.070316,79.2657976 C55.299582,79.2657976 53.8641185,80.7012611 53.8641185,82.4719951 C53.8641185,84.2427291 55.299582,85.6781926 57.070316,85.6781926 Z M57.070316,98.5029828 C58.84105,98.5029828 60.2765135,97.0675192 60.2765135,95.2967852 C60.2765135,93.5260512 58.84105,92.0905877 57.070316,92.0905877 C55.299582,92.0905877 53.8641185,93.5260512 53.8641185,95.2967852 C53.8641185,97.0675192 55.299582,98.5029828 57.070316,98.5029828 Z" id="Combined-Shape"></path>
            </g>
        </g>
    </g>
</svg>
