<svg viewBox="0 0 16 16" xmlns="http://www.w3.org/2000/svg">
  <path
    fill="#000000"
    d="M6.05,15.3 C6.74035594,15.3 7.3,14.7403559 7.3,14.05 C7.3,13.3596441 6.74035594,12.8 6.05,12.8 C5.35964406,12.8 4.8,13.3596441 4.8,14.05 C4.8,14.7403559 5.35964406,15.3 6.05,15.3 Z M10.05,15.3 C10.7403559,15.3 11.3,14.7403559 11.3,14.05 C11.3,13.3596441 10.7403559,12.8 10.05,12.8 C9.35964406,12.8 8.8,13.3596441 8.8,14.05 C8.8,14.7403559 9.35964406,15.3 10.05,15.3 Z M14.05,11.3 C14.7403559,11.3 15.3,10.7403559 15.3,10.05 C15.3,9.35964406 14.7403559,8.8 14.05,8.8 C13.3596441,8.8 12.8,9.35964406 12.8,10.05 C12.8,10.7403559 13.3596441,11.3 14.05,11.3 Z M10.05,11.3 C10.7403559,11.3 11.3,10.7403559 11.3,10.05 C11.3,9.35964406 10.7403559,8.8 10.05,8.8 C9.35964406,8.8 8.8,9.35964406 8.8,10.05 C8.8,10.7403559 9.35964406,11.3 10.05,11.3 Z M6.05,7.3 C6.74035594,7.3 7.3,6.74035594 7.3,6.05 C7.3,5.35964406 6.74035594,4.8 6.05,4.8 C5.35964406,4.8 4.8,5.35964406 4.8,6.05 C4.8,6.74035594 5.35964406,7.3 6.05,7.3 Z M2.05,7.3 C2.74035594,7.3 3.3,6.74035594 3.3,6.05 C3.3,5.35964406 2.74035594,4.8 2.05,4.8 C1.35964406,4.8 0.8,5.35964406 0.8,6.05 C0.8,6.74035594 1.35964406,7.3 2.05,7.3 Z M2.05,3.3 C2.74035594,3.3 3.3,2.74035594 3.3,2.05 C3.3,1.35964406 2.74035594,0.8 2.05,0.8 C1.35964406,0.8 0.8,1.35964406 0.8,2.05 C0.8,2.74035594 1.35964406,3.3 2.05,3.3 Z M14.05,3.3 C14.7403559,3.3 15.3,2.74035594 15.3,2.05 C15.3,1.35964406 14.7403559,0.8 14.05,0.8 C13.3596441,0.8 12.8,1.35964406 12.8,2.05 C12.8,2.74035594 13.3596441,3.3 14.05,3.3 Z"/>
</svg>
